<svg width="116" height="116" xmlns="http://www.w3.org/2000/svg" xmlns:xlink="http://www.w3.org/1999/xlink" xml:space="preserve" overflow="hidden"><defs><clipPath id="clip0"><rect x="0" y="0" width="116" height="116"/></clipPath><linearGradient x1="93.8807" y1="69.3286" x2="93.8076" y2="46.6728" gradientUnits="userSpaceOnUse" spreadMethod="pad" id="fill1"><stop offset="0" stop-color="#182B41"/><stop offset="1" stop-color="#2A4E81"/></linearGradient><linearGradient x1="51.0056" y1="69.3793" x2="50.7686" y2="46.6207" gradientUnits="userSpaceOnUse" spreadMethod="pad" id="fill2"><stop offset="0" stop-color="#182B41"/><stop offset="1" stop-color="#2A4E81"/></linearGradient><linearGradient x1="69.8877" y1="69.1042" x2="69.775" y2="46.6212" gradientUnits="userSpaceOnUse" spreadMethod="pad" id="fill3"><stop offset="0" stop-color="#182B41"/><stop offset="1" stop-color="#2A4E81"/></linearGradient><linearGradient x1="27.7636" y1="69.3544" x2="27.5843" y2="46.6207" gradientUnits="userSpaceOnUse" spreadMethod="pad" id="fill4"><stop offset="0" stop-color="#182B41"/><stop offset="1" stop-color="#2A4E81"/></linearGradient></defs><g clip-path="url(#clip0)"><path d="M115.193 0C115.639 -1.50921e-16 116 0.361427 116 0.807269L116 115.193C116 115.639 115.639 116 115.193 116L0.807269 116C0.361427 116-9.55191e-08 115.639-9.55191e-08 115.193L-9.55191e-08 0.807269C-9.55191e-08 0.361427 0.361427-9.55191e-08 0.807269-9.55191e-08Z" stroke="#132E32" stroke-width="0.169922" stroke-linecap="round" fill="#FFFFFF"/><path d="M84.56 58.0002 84.56 46.6725 86.9977 46.7182 89.4343 46.7639 89.4785 51.1014 89.5227 55.4389 93.8991 55.4389 98.2746 55.4389 98.2746 51.0601 98.2746 46.6813 100.67 46.6813 103.066 46.6813 103.066 58.0002 103.066 69.319 100.67 69.319 98.2746 69.319 98.2746 64.7749 98.2746 60.2308 93.8982 60.2308 89.5227 60.2308 89.4785 64.7336 89.4343 69.2364 86.9977 69.2821 84.56 69.3279Z" fill="url(#fill1)"/><path d="M40.4203 69.0934C40.4894 68.8365 48.1277 47.7186 48.4279 46.9544 48.6053 46.5025 54.2171 46.5136 54.4594 46.9663 54.618 47.2625 62.2432 68.52 62.395 69.089 62.4663 69.3563 62.2679 69.3792 59.8773 69.3792L57.2821 69.3792 56.9804 68.6745C56.8145 68.287 56.4282 67.2051 56.122 66.2704L55.5654 64.5709 51.3905 64.5709 47.2156 64.5709 46.3882 66.9337 45.5608 69.2963 42.9509 69.3421C40.5193 69.3847 40.3465 69.3677 40.4203 69.0934ZM54.1436 60.18C54.1436 59.4065 51.4266 51.9388 51.2828 52.3172 50.5404 54.2712 48.5618 60.2602 48.6346 60.333 48.8748 60.5733 54.1436 60.427 54.1436 60.18Z" fill="url(#fill2)"/><path d="M69.8876 69.1042C66.6878 68.4089 64.245 65.979 63.9589 63.207L63.8645 62.2927 66.1903 62.2927 68.5162 62.2927 68.6097 62.8686C69.1099 65.9512 75.4123 66.3226 76.0996 63.31 76.5289 61.4281 75.647 60.7244 71.8097 59.887 66.3472 58.6949 64.5261 57.2776 64.1344 53.9135 63.1602 45.5481 78.1694 43.7122 80.3574 51.929 80.75 53.404 80.878 53.3157 78.3495 53.3157L76.1179 53.3157 76.0084 52.8167C75.3705 49.9125 69.3337 49.846 68.7913 52.7373 68.4619 54.4931 69.3563 55.1309 73.4305 56.045 77.7344 57.0108 78.8372 57.5758 80.0233 59.4227 83.5116 64.8542 77.3616 70.7285 69.8876 69.1042Z" fill="url(#fill3)"/><path d="M19.1602 57.3218C14.6696 57.2712 14.1078 57.2457 13.8015 57.0782 12.7559 56.5061 12.6257 54.9968 13.5708 54.4022 14.1153 54.0596 29.4536 54.1147 30.0452 54.4615 31.1786 55.1257 31.1806 56.661 30.0487 57.2382 29.6415 57.4458 29.95 57.4435 19.1602 57.3218Z" fill="#358FD2"/><path d="M16.7482 62.7119C15.5325 62.3417 15.3391 60.5437 16.453 59.9676 17.0056 59.6819 27.3182 59.7202 27.8865 60.0101 28.8706 60.512 29.0257 61.674 28.2129 62.4529L27.8848 62.7673 22.4706 62.7865C19.4928 62.7971 16.9178 62.7634 16.7482 62.7119Z" fill="#4CB3AC"/><path d="M19.7287 69.2453C18.7518 68.812 18.7901 68.2857 19.9257 66.5417 21.4426 64.2122 21.1283 64.3321 25.7211 64.33 29.8073 64.3283 30.2135 64.2774 31.4883 63.6074 35.9159 61.2809 36.0568 54.6027 31.7237 52.4561 30.3498 51.7755 30.442 51.7842 24.0055 51.717L18.1164 51.6554 17.6727 51.3477C17.2389 51.047 16.1104 49.5721 15.6271 48.6741 15.2408 47.9564 15.3683 47.2127 15.9471 46.8072 16.2912 46.5662 28.9085 46.556 30.488 46.7955 42.544 48.6235 43.234 65.8234 31.3809 69.0532L30.3261 69.3406 25.2017 69.3703C20.9403 69.3949 20.0185 69.3737 19.7287 69.2453Z" fill="url(#fill4)"/><path d="M12.6603 103.713C12.6603 103.682 12.6858 103.657 12.717 103.657 12.7482 103.657 12.7737 103.682 12.7737 103.713 12.7737 103.744 12.7482 103.77 12.717 103.77 12.6858 103.77 12.6603 103.744 12.6603 103.713Z"/><path d="M15.8284 46.6946C15.8496 46.6946 15.8667 46.7117 15.8667 46.7328L15.8667 46.7328C15.8667 46.7539 15.8496 46.771 15.8284 46.771L15.81 46.771C15.7889 46.771 15.7718 46.7539 15.7718 46.7328L15.7718 46.7328C15.7718 46.7117 15.7889 46.6946 15.81 46.6946Z" fill="#4CB3AC"/></g></svg>